<svg xmlns="http://www.w3.org/2000/svg" viewBox="0 0 240.94 155.91"><defs><style>.cls-1{fill:#e01549;}.cls-2{font-size:5.47px;font-family:Roboto-Medium, Roboto;font-weight:500;letter-spacing:0.2em;}.cls-2,.cls-6{fill:#fff;}.cls-3{letter-spacing:0.17em;}.cls-4{letter-spacing:0.13em;}.cls-5{letter-spacing:0.17em;}</style></defs><g id="katman_2" data-name="katman 2"><g id="Layer_1" data-name="Layer 1"><rect class="cls-1" width="240.94" height="155.91"/><text class="cls-2" transform="translate(72.08 104.4)">Bİ<tspan class="cls-3" x="7.19" y="0">L</tspan><tspan x="11.07" y="0">GİS</tspan><tspan class="cls-4" x="22.93" y="0">AY</tspan><tspan x="31.3" y="0">AR</tspan><tspan class="cls-5" x="40.54" y="0"> </tspan><tspan x="42.84" y="0">TEKNO</tspan><tspan class="cls-3" x="65.85" y="0">L</tspan><tspan x="69.73" y="0">OJİLERİ</tspan></text><path class="cls-6" d="M165.8,82.14a1.74,1.74,0,0,1,.85-1.49,1.72,1.72,0,0,1,.86-.22,1.69,1.69,0,0,1,.86.22,1.66,1.66,0,0,1,.63.63,1.69,1.69,0,0,1,.22.86A1.72,1.72,0,0,1,169,83a1.78,1.78,0,0,1-.63.62,1.7,1.7,0,0,1-.86.23,1.73,1.73,0,0,1-.86-.23A1.63,1.63,0,0,1,166,83,1.69,1.69,0,0,1,165.8,82.14Zm3.13,0a1.43,1.43,0,0,0-.18-.7,1.34,1.34,0,0,0-.51-.52,1.4,1.4,0,0,0-.73-.2,1.42,1.42,0,0,0-1.23.71,1.41,1.41,0,0,0-.18.71,1.48,1.48,0,0,0,.18.72,1.42,1.42,0,0,0,1.23.71,1.39,1.39,0,0,0,.72-.19,1.34,1.34,0,0,0,.51-.52A1.39,1.39,0,0,0,168.93,82.13Zm-1.76.18v.77h-.37V81.14h.68a1,1,0,0,1,.57.15.54.54,0,0,1,.21.45.45.45,0,0,1-.27.4.39.39,0,0,1,.21.19.76.76,0,0,1,.06.32v.26a.4.4,0,0,0,0,.13v0h-.38a1.78,1.78,0,0,1,0-.44.3.3,0,0,0-.08-.25.33.33,0,0,0-.26-.08Zm0-.31h.32a.56.56,0,0,0,.3-.07.23.23,0,0,0,.11-.19.29.29,0,0,0-.08-.23.49.49,0,0,0-.31-.07h-.34Z"/><polygon class="cls-6" points="175.9 50.06 175.9 50.02 118.43 50.02 111.96 50.02 101.28 66.86 96.15 58.77 72.53 58.77 72.58 83.74 86.23 83.74 89.72 78.33 77.98 78.33 77.98 73.95 90.29 73.95 90.29 68.55 77.98 68.55 77.98 64.17 93.2 64.17 97.81 71.25 86.94 88.11 68.16 88.11 68.16 54.39 105.7 54.39 108.47 50.02 68.16 50.02 66.11 50.02 63.78 50.02 63.78 92.49 66.11 92.49 68.16 92.49 84.12 92.49 84.98 92.49 90.59 92.49 101.28 75.64 106.48 83.74 128.88 83.74 128.92 58.77 116.3 58.77 112.81 64.17 123.47 64.17 123.47 68.55 111.16 68.55 111.16 73.95 123.47 73.95 123.47 78.33 109.38 78.33 104.71 71.25 115.6 54.39 172.79 54.39 172.79 88.11 96.84 88.11 94.06 92.49 172.79 92.49 175.9 92.49 177.16 92.49 177.16 50.06 175.9 50.06"/><path class="cls-6" d="M142.68,58.77H132.59v25h5.53V75.43h2.17l5.24,8.31h6.39l-6-8.67C153.27,73.86,154.06,58.77,142.68,58.77Zm-.11,11.16h-4.45V64.3h4.56C145.75,64.3,146.28,69.93,142.57,69.93Z"/><polygon class="cls-6" points="163.62 83.74 163.62 64.3 169.47 64.3 169.47 58.77 152.31 58.77 152.31 64.3 158.16 64.3 158.16 83.74 163.62 83.74"/></g></g></svg>