<svg xmlns="http://www.w3.org/2000/svg" viewBox="0 0 240.94 155.91"><defs><style>.cls-1{fill:#fff;}.cls-2{font-size:7.21px;fill:#9e9e9e;font-family:Roboto-Medium, Roboto;font-weight:500;letter-spacing:0.2em;}.cls-3{letter-spacing:0.19em;}.cls-4{fill:#e01748;}</style></defs><g id="katman_2" data-name="katman 2"><g id="Layer_1" data-name="Layer 1"><rect class="cls-1" width="240.94" height="155.91"/><text class="cls-2" transform="translate(17.09 90.95) scale(0.95 1)">Şir<tspan class="cls-3" x="13.05" y="0">k</tspan><tspan x="18.18" y="0">etler Grubu</tspan></text><polygon class="cls-4" points="80.83 59.13 80.83 59.11 48.16 59.11 44.48 59.11 38.41 68.68 35.49 64.08 22.06 64.08 22.09 78.28 29.85 78.28 31.83 75.2 25.16 75.2 25.16 72.72 32.16 72.72 32.16 69.64 25.16 69.64 25.16 67.16 33.81 67.16 36.43 71.18 30.25 80.77 19.57 80.77 19.57 61.59 40.92 61.59 42.5 59.11 19.57 59.11 18.41 59.11 17.09 59.11 17.09 83.25 18.41 83.25 19.57 83.25 28.65 83.25 29.14 83.25 32.33 83.25 38.41 73.68 41.36 78.28 54.09 78.28 54.12 64.08 46.95 64.08 44.96 67.16 51.02 67.16 51.02 69.64 44.02 69.64 44.02 72.72 51.02 72.72 51.02 75.2 43.01 75.2 40.36 71.18 46.55 61.59 79.06 61.59 79.06 80.77 35.88 80.77 34.3 83.25 79.06 83.25 80.83 83.25 81.55 83.25 81.55 59.13 80.83 59.13"/><path class="cls-4" d="M61.94,64.08H56.21v14.2h3.14V73.55h1.24l3,4.73H67.2l-3.41-4.93C68,72.66,68.41,64.08,61.94,64.08Zm-.06,6.35H59.35v-3.2h2.59C63.69,67.23,64,70.43,61.88,70.43Z"/><polygon class="cls-4" points="73.85 78.28 73.85 67.22 77.17 67.22 77.17 64.08 67.42 64.08 67.42 67.22 70.75 67.22 70.75 78.28 73.85 78.28"/></g></g></svg>