<svg xmlns="http://www.w3.org/2000/svg" viewBox="0 0 90.89 40"><defs><style>.cls-1{fill:#fff;}.cls-2{fill:#e01748;}.cls-3{font-size:6.97px;fill:#9e9e9e;font-family:SourceSansPro-SemiBold, Source Sans Pro;font-weight:600;letter-spacing:0.2em;}.cls-4{letter-spacing:0.18em;}.cls-5{letter-spacing:0.19em;}.cls-6{letter-spacing:0.2em;}.cls-7{fill:none;}</style></defs><g id="katman_2" data-name="katman 2"><g id="Layer_1" data-name="Layer 1"><rect class="cls-1" x="14.44" width="76.44" height="38.58"/><path class="cls-2" d="M78.8,22a.91.91,0,0,1,.13-.48.93.93,0,0,1,.35-.36,1.05,1.05,0,0,1,.49-.13,1,1,0,0,1,.49.13,1,1,0,0,1,.36.36,1,1,0,0,1,.12.48,1,1,0,0,1-.13.5.91.91,0,0,1-.35.35A1,1,0,0,1,78.8,22Zm1.77,0a.82.82,0,0,0-.1-.4.85.85,0,0,0-.7-.41.8.8,0,0,0-.4.11.72.72,0,0,0-.3.3A.8.8,0,0,0,79,22a.81.81,0,0,0,.11.41.76.76,0,0,0,.29.3.82.82,0,0,0,.82,0,.92.92,0,0,0,.29-.3A.83.83,0,0,0,80.57,22Zm-1,.1v.44h-.2v-1.1h.38a.54.54,0,0,1,.33.09.28.28,0,0,1,.12.25A.23.23,0,0,1,80,22a.23.23,0,0,1,.12.12.45.45,0,0,1,0,.18.58.58,0,0,0,0,.15.14.14,0,0,0,0,.07v0H80a1.3,1.3,0,0,1,0-.25.18.18,0,0,0,0-.14.21.21,0,0,0-.15-.05Zm0-.17h.19a.31.31,0,0,0,.17,0,.14.14,0,0,0,.06-.11.16.16,0,0,0,0-.13.25.25,0,0,0-.17,0h-.2Z"/><text class="cls-3" transform="translate(20.66 35.51) scale(0.99 1)">Şir<tspan class="cls-4" x="12.41" y="0">k</tspan><tspan class="cls-5" x="17.28" y="0">e</tspan><tspan class="cls-6" x="22.13" y="0">tler Grubu</tspan></text><polygon class="cls-2" points="84.4 3.07 84.4 3.04 51.73 3.04 48.05 3.04 41.98 12.62 39.06 8.02 25.63 8.02 25.66 22.21 33.42 22.21 35.4 19.14 28.73 19.14 28.73 16.65 35.73 16.65 35.73 13.58 28.73 13.58 28.73 11.09 37.38 11.09 40 15.12 33.83 24.7 23.14 24.7 23.14 5.53 44.49 5.53 46.07 3.04 23.14 3.04 21.98 3.04 20.66 3.04 20.66 27.19 21.98 27.19 23.14 27.19 32.22 27.19 32.71 27.19 35.9 27.19 41.98 17.61 44.93 22.21 57.67 22.21 57.69 8.02 50.52 8.02 48.53 11.09 54.59 11.09 54.59 13.58 47.59 13.58 47.59 16.65 54.59 16.65 54.59 19.14 46.58 19.14 43.93 15.12 50.12 5.53 82.63 5.53 82.63 24.7 39.45 24.7 37.87 27.19 82.63 27.19 84.4 27.19 85.12 27.19 85.12 3.07 84.4 3.07"/><path class="cls-2" d="M65.52,8H59.78V22.21h3.14V17.49h1.24l3,4.72h3.63l-3.41-4.92C71.54,16.6,72,8,65.52,8Zm-.07,6.35H62.92V11.16h2.6C67.26,11.16,67.56,14.37,65.45,14.37Z"/><polygon class="cls-2" points="77.42 22.21 77.42 11.16 80.74 11.16 80.74 8.02 70.99 8.02 70.99 11.16 74.31 11.16 74.31 22.21 77.42 22.21"/><rect class="cls-7" width="90.89" height="40"/></g></g></svg>