<svg xmlns="http://www.w3.org/2000/svg" viewBox="0 0 76.44 38.58"><defs><style>.cls-1{fill:#fff;}.cls-2{font-size:6.97px;fill:#9e9e9e;font-family:Roboto-Medium, Roboto;font-weight:500;letter-spacing:0.2em;}.cls-3{letter-spacing:0.19em;}.cls-4{letter-spacing:0.2em;}.cls-5{fill:#e01748;}</style></defs><g id="katman_2" data-name="katman 2"><g id="Layer_1" data-name="Layer 1"><rect class="cls-1" width="76.44" height="38.58"/><text class="cls-2" transform="translate(6.21 34.68) scale(0.98 1)">Şir<tspan class="cls-3" x="12.62" y="0">k</tspan><tspan class="cls-4" x="17.58" y="0">etler Grubu</tspan></text><polygon class="cls-5" points="69.96 3.07 69.96 3.04 37.28 3.04 33.61 3.04 27.53 12.62 24.62 8.02 11.19 8.02 11.21 22.21 18.98 22.21 20.96 19.14 14.29 19.14 14.29 16.65 21.29 16.65 21.29 13.58 14.29 13.58 14.29 11.09 22.94 11.09 25.56 15.12 19.38 24.7 8.7 24.7 8.7 5.53 30.05 5.53 31.62 3.04 8.7 3.04 7.54 3.04 6.21 3.04 6.21 27.19 7.54 27.19 8.7 27.19 17.78 27.19 18.27 27.19 21.45 27.19 27.53 17.61 30.49 22.21 43.22 22.21 43.25 8.02 36.07 8.02 34.09 11.09 40.15 11.09 40.15 13.58 33.15 13.58 33.15 16.65 40.15 16.65 40.15 19.14 32.14 19.14 29.48 15.12 35.68 5.53 68.19 5.53 68.19 24.7 25.01 24.7 23.43 27.19 68.19 27.19 69.96 27.19 70.68 27.19 70.68 3.07 69.96 3.07"/><path class="cls-5" d="M51.07,8H45.33V22.21h3.15V17.49h1.23l3,4.72h3.63l-3.4-4.92C57.09,16.6,57.54,8,51.07,8ZM51,14.37H48.48V11.16h2.59C52.81,11.16,53.12,14.37,51,14.37Z"/><polygon class="cls-5" points="62.97 22.21 62.97 11.16 66.3 11.16 66.3 8.02 56.55 8.02 56.55 11.16 59.87 11.16 59.87 22.21 62.97 22.21"/></g></g></svg>